PathFileType	4	(x/y/z)	S08_PSF_T14
DataRate	CameraRate	NumFrames	NumMarkers	Units	OrigDataRate	OrigDataStartFrame	OrigNumFrames
240	240	11	51	mm	240	313	417
Frame#	Time	Sternum			R.Acromium			L.Acromium			Top.Head			R.ASIS			L.ASIS			R.PSIS			L.PSIS			R.Great.Tro			L.Great.Tro			R.Iliac.Crest			L.Iliac.Crest			V.Sacral			R.Thigh.Upper.Post			R.Thigh.Lower.Ant			R.Thigh.Lower.Post			R.Thigh.Upper.Ant			R.Knee.Lat			R.Knee.Med			R.Shank.Upper.Post			R.Shank.Lower.Ant			R.Shank.Lower.Post			R.Shank.Upper.Ant			R.Ankle.Lat			R.Ankle.Med			R.Heel.Upper			R.Heel.Med			R.Heel.Lat			R.Toe.Lat			R.Toe.Med			R.Toe.Tip			L.Thigh.Upper.Post			L.Thigh.Lower.Ant			L.Thigh.Lower.Post			L.Thigh.Upper.Ant			L.Knee.Lat			L.Knee.Med			L.Shank.Upper.Post			L.Shank.Lower.Ant			L.Shank.Lower.Post			L.Shank.Upper.Ant			L.Ankle.Lat			L.Ankle.Med			L.Heel.Upper			L.Heel.Med			L.Heel.Lat			L.Toe.Lat			L.Toe.Med			L.Toe.Tip			Cervical.Spine			Back			
		X1	Y1	Z1	X2	Y2	Z2	X3	Y3	Z3	X4	Y4	Z4	X5	Y5	Z5	X6	Y6	Z6	X7	Y7	Z7	X8	Y8	Z8	X9	Y9	Z9	X10	Y10	Z10	X11	Y11	Z11	X12	Y12	Z12	X13	Y13	Z13	X14	Y14	Z14	X15	Y15	Z15	X16	Y16	Z16	X17	Y17	Z17	X18	Y18	Z18	X19	Y19	Z19	X20	Y20	Z20	X21	Y21	Z21	X22	Y22	Z22	X23	Y23	Z23	X24	Y24	Z24	X25	Y25	Z25	X26	Y26	Z26	X27	Y27	Z27	X28	Y28	Z28	X29	Y29	Z29	X30	Y30	Z30	X31	Y31	Z31	X32	Y32	Z32	X33	Y33	Z33	X34	Y34	Z34	X35	Y35	Z35	X36	Y36	Z36	X37	Y37	Z37	X38	Y38	Z38	X39	Y39	Z39	X40	Y40	Z40	X41	Y41	Z41	X42	Y42	Z42	X43	Y43	Z43	X44	Y44	Z44	X45	Y45	Z45	X46	Y46	Z46	X47	Y47	Z47	X48	Y48	Z48	X49	Y49	Z49	X50	Y50	Z50	X51	Y51	Z51	

313	1.3	227.06	1233.5	316.8	112.03	1472.6	490.49	93.813	1495.5	154.58	109.11	1787.1	332.38	204.29	1014.5	423.22	207.72	1026.7	191.77	3.6179	1041.9	347.18	8.3399	1050.8	253.96	138.3	900.54	488.46	119.53	919.78	122.59	108.03	1081.8	469.49	113.04	1107.9	161.94	-11.018	1005.9	296.73	166.07	702.46	476.08	263.43	621.06	452.16	191.74	616.3	458.57	244.48	713.02	469.49	243.47	520.47	447.78	228	521.04	315.48	83.484	427.79	456.6	80.632	339.34	436.34	27.872	374.06	450.9	137.3	393.47	444.34	-94.083	262.57	422.46	-62.73	247.9	344.16	-145.9	278.89	373.02	-159.97	255.59	344.21	-164.58	260.91	406.21	NaN	NaN	NaN	-53.006	106.92	334.47	-1.8375	64.901	380.01	130.88	708.24	142.54	225.61	629.72	171.87	157.6	623.2	163.54	203.96	712.32	144.42	186.63	522.71	188.59	179.63	526.2	313.08	130.23	340.34	189.5	196.95	254.86	218.87	126.97	268.1	207.36	194.01	329.47	200.62	145.45	99.961	229.91	168.74	104.35	316.44	92.584	75.991	280.66	107.49	40.61	310.08	99.75	48.965	246.75	275.85	41.058	208.8	297.3	38.912	323.99	360.25	57.181	274.47	36.192	1526.4	318.45	-8.3291	1242.2	330.28
314	1.3042	231.9	1234.1	316.79	116.92	1473.3	490.41	98.953	1496.2	154.56	114.38	1787.7	332.38	209.12	1015.3	423.08	212.64	1027.3	191.64	8.4619	1042.6	346.92	13.279	1051.3	253.72	143.48	901.53	488.39	124.29	920.25	122.48	112.76	1082.6	469.32	118.01	1108.4	161.73	-6.1011	1006.6	296.49	173.69	703.67	476.18	271.86	623.31	451.84	200.21	617.78	458.57	251.95	715.06	469.24	252.87	522.44	447.47	237.13	522.95	315.27	93.848	427.94	456.65	92.021	339.46	436.38	38.904	373.54	451.09	148.05	394.27	444.24	-81.929	260.55	422.67	-50.395	246.31	344.5	-134.5	275.39	373.31	-147.99	251.55	344.68	-152.65	257.11	406.63	NaN	NaN	NaN	-37.3	105.64	335.61	14.961	65.232	381.37	134.19	708.77	142.41	228.31	629.54	171.88	160.31	623.5	163.36	207.24	712.32	144.48	188.47	522.7	188.57	181.64	526.26	313.02	131.2	340.55	189.45	197.62	254.82	218.92	127.69	268.3	207.38	194.95	329.44	200.62	145.62	100.02	230.03	168.76	104.36	316.46	92.648	76.07	280.67	107.43	40.676	310.04	99.789	49.041	246.75	275.88	41.043	208.79	297.35	38.785	324.01	360.32	56.977	274.46	41.24	1527	318.34	-3.4744	1243	329.97
315	1.3083	236.72	1234.7	316.78	121.8	1473.9	490.33	104.09	1497	154.54	119.63	1788.3	332.39	213.96	1016.2	422.93	217.54	1027.8	191.49	13.294	1043.2	346.68	18.2	1051.9	253.48	148.65	902.5	488.33	129.04	920.68	122.37	117.48	1083.3	469.16	122.95	1108.9	161.53	-1.1931	1007.2	296.27	181.25	704.87	476.32	280.19	625.55	451.52	208.6	619.26	458.61	259.35	717.08	468.99	262.14	524.4	447.15	246.13	524.85	315.06	104.15	427.99	456.68	103.42	339.49	436.41	49.927	372.88	451.28	158.76	395.01	444.14	-69.661	258.31	422.89	-37.95	244.52	344.82	-122.96	271.61	373.61	-135.84	247.25	345.17	-140.54	253.04	407.07	NaN	NaN	NaN	-21.423	104.24	336.73	31.92	65.492	382.69	137.51	709.28	142.28	231.01	629.36	171.9	163.02	623.79	163.18	210.52	712.31	144.56	190.29	522.7	188.55	183.61	526.3	312.96	132.15	340.76	189.41	198.29	254.78	218.97	128.41	268.5	207.4	195.88	329.41	200.63	145.8	100.08	230.16	168.77	104.37	316.49	92.712	76.147	280.68	107.36	40.741	309.99	99.827	49.115	246.76	275.91	41.032	208.77	297.4	38.663	324.03	360.39	56.783	274.46	46.284	1527.7	318.22	1.3734	1243.7	329.66
316	1.3125	241.54	1235.3	316.76	126.69	1474.6	490.24	109.23	1497.7	154.53	124.89	1788.8	332.41	218.79	1017	422.78	222.43	1028.3	191.34	18.113	1043.8	346.45	23.101	1052.4	253.27	153.82	903.45	488.28	133.79	921.06	122.28	122.2	1084.1	469	127.85	1109.4	161.34	3.7054	1007.7	296.06	188.74	706.07	476.49	288.41	627.77	451.21	216.91	620.74	458.68	266.66	719.09	468.75	271.29	526.34	446.83	254.99	526.74	314.88	114.4	427.93	456.71	114.84	339.43	436.44	60.942	372.11	451.46	169.42	395.7	444.04	-57.275	255.84	423.11	-25.393	242.53	345.14	-111.25	267.58	373.92	-123.53	242.71	345.66	-128.26	248.73	407.52	NaN	NaN	NaN	-5.3814	102.73	337.82	49.024	65.692	383.96	140.82	709.76	142.15	233.71	629.17	171.93	165.73	624.07	163.01	213.8	712.28	144.66	192.11	522.68	188.54	185.53	526.33	312.91	133.1	340.96	189.37	198.96	254.73	219.02	129.13	268.7	207.42	196.8	329.38	200.65	145.98	100.14	230.28	168.76	104.38	316.52	92.778	76.222	280.69	107.29	40.804	309.95	99.866	49.188	246.77	275.93	41.023	208.76	297.45	38.545	324.04	360.45	56.599	274.45	51.325	1528.3	318.11	6.2154	1244.3	329.36
317	1.3167	246.35	1235.8	316.73	131.58	1475.1	490.16	114.37	1498.3	154.51	130.14	1789.3	332.44	223.61	1017.8	422.62	227.29	1028.7	191.17	22.92	1044.3	346.24	27.984	1052.8	253.07	158.98	904.38	488.25	138.52	921.4	122.2	126.9	1084.7	468.85	132.73	1109.8	161.15	8.5934	1008.3	295.88	196.18	707.27	476.69	296.54	629.97	450.9	225.13	622.22	458.78	273.91	721.07	468.51	280.31	528.27	446.5	263.71	528.61	314.71	124.59	427.78	456.72	126.26	339.29	436.48	71.949	371.2	451.64	180.04	396.33	443.95	-44.77	253.17	423.35	-12.725	240.36	345.45	-99.391	263.3	374.24	-111.04	237.94	346.17	-115.81	244.18	407.99	NaN	NaN	NaN	10.816	101.14	338.87	66.26	65.84	385.17	144.13	710.23	142.03	236.39	628.98	171.97	168.42	624.33	162.86	217.06	712.24	144.76	193.91	522.66	188.54	187.41	526.36	312.87	134.04	341.16	189.33	199.61	254.68	219.08	129.84	268.9	207.44	197.71	329.35	200.67	146.16	100.2	230.41	168.74	104.39	316.55	92.845	76.294	280.7	107.22	40.865	309.9	99.905	49.26	246.78	275.96	41.016	208.75	297.49	38.433	324.06	360.51	56.426	274.45	56.364	1528.8	318	11.053	1245	329.06
318	1.3208	251.15	1236.3	316.69	136.48	1475.7	490.07	119.51	1499	154.5	135.39	1789.8	332.47	228.43	1018.6	422.45	232.14	1029.1	191	27.715	1044.8	346.05	32.847	1053.2	252.89	164.14	905.29	488.23	143.24	921.69	122.14	131.6	1085.4	468.71	137.58	1110.2	160.97	13.47	1008.8	295.72	203.55	708.45	476.92	304.56	632.14	450.6	233.27	623.68	458.91	281.08	723.03	468.27	289.19	530.17	446.17	272.29	530.46	314.56	134.72	427.52	456.72	137.7	339.07	436.51	82.949	370.18	451.82	190.61	396.89	443.87	-32.142	250.3	423.6	0.058715	238	345.75	-87.363	258.79	374.57	-98.374	232.96	346.69	-103.17	239.41	408.48	NaN	NaN	NaN	27.161	99.466	339.88	83.613	65.943	386.31	147.43	710.67	141.92	239.07	628.78	172.02	171.1	624.58	162.72	220.31	712.19	144.87	195.71	522.64	188.54	189.24	526.37	312.83	134.98	341.35	189.3	200.26	254.63	219.14	130.55	269.1	207.45	198.61	329.31	200.68	146.34	100.25	230.54	168.7	104.4	316.59	92.912	76.363	280.71	107.15	40.924	309.86	99.943	49.331	246.79	275.98	41.01	208.75	297.54	38.328	324.07	360.56	56.262	274.44	61.403	1529.4	317.88	15.886	1245.6	328.77
319	1.325	255.94	1236.8	316.64	141.38	1476.2	489.98	124.66	1499.6	154.49	140.63	1790.3	332.51	233.24	1019.3	422.28	236.97	1029.5	190.81	32.497	1045.2	345.88	37.69	1053.6	252.72	169.3	906.17	488.22	147.95	921.94	122.1	136.28	1086	468.57	142.4	1110.5	160.79	18.334	1009.2	295.57	210.86	709.62	477.17	312.48	634.28	450.3	241.31	625.13	459.06	288.17	724.94	468.03	297.95	532.05	445.84	280.71	532.28	314.42	144.79	427.17	456.72	149.14	338.78	436.55	93.943	369.04	451.99	201.14	397.4	443.79	-19.391	247.24	423.86	12.96	235.48	346.04	-75.163	254.06	374.92	-85.521	227.78	347.22	-90.346	234.43	408.98	NaN	NaN	NaN	43.648	97.733	340.85	101.07	66.01	387.39	150.73	711.1	141.8	241.75	628.57	172.07	173.77	624.82	162.59	223.56	712.13	144.98	197.5	522.61	188.53	191.04	526.38	312.8	135.92	341.54	189.28	200.91	254.58	219.19	131.26	269.31	207.45	199.5	329.28	200.7	146.52	100.31	230.67	168.64	104.4	316.63	92.98	76.428	280.72	107.09	40.979	309.82	99.982	49.401	246.8	276.01	41.004	208.74	297.58	38.23	324.07	360.61	56.108	274.44	66.442	1529.9	317.77	20.716	1246.2	328.49
320	1.3292	260.74	1237.3	316.59	146.28	1476.7	489.9	129.8	1500.2	154.48	145.87	1790.7	332.55	238.04	1019.9	422.1	241.79	1029.8	190.62	37.268	1045.7	345.73	42.513	1053.9	252.57	174.47	907.02	488.23	152.65	922.15	122.08	140.96	1086.6	468.44	147.19	1110.8	160.62	23.186	1009.6	295.45	218.1	710.77	477.44	320.3	636.37	450.01	249.27	626.55	459.22	295.2	726.82	467.81	306.57	533.89	445.51	288.99	534.07	314.31	154.82	426.71	456.7	160.59	338.4	436.6	104.93	367.78	452.16	211.63	397.85	443.71	-6.5128	244	424.13	25.981	232.79	346.34	-62.786	249.14	375.28	-72.478	222.44	347.75	-77.335	229.26	409.48	NaN	NaN	NaN	60.269	95.948	341.78	118.62	66.045	388.38	154.03	711.5	141.69	244.42	628.36	172.12	176.43	625.05	162.48	226.79	712.05	145.1	199.29	522.57	188.53	192.82	526.39	312.77	136.87	341.71	189.26	201.55	254.52	219.24	131.98	269.52	207.45	200.4	329.24	200.71	146.69	100.36	230.79	168.56	104.42	316.67	93.048	76.49	280.72	107.04	41.031	309.78	100.02	49.47	246.81	276.03	40.998	208.74	297.62	38.14	324.07	360.66	55.962	274.43	71.484	1530.3	317.66	25.544	1246.7	328.21
321	1.3333	265.52	1237.7	316.52	151.2	1477.1	489.81	134.96	1500.8	154.47	151.1	1791.1	332.6	242.83	1020.6	421.92	246.58	1030.1	190.43	42.027	1046	345.6	47.318	1054.2	252.44	179.64	907.85	488.24	157.33	922.31	122.07	145.64	1087.1	468.31	151.97	1111.1	160.46	28.023	1009.9	295.35	225.29	711.91	477.72	328.01	638.42	449.72	257.13	627.96	459.39	302.16	728.65	467.58	315.05	535.69	445.17	297.11	535.81	314.21	164.8	426.15	456.68	172.06	337.96	436.64	115.92	366.41	452.33	222.07	398.23	443.65	6.4927	240.6	424.41	39.127	229.96	346.63	-50.226	244.04	375.66	-59.238	216.94	348.28	-64.132	223.91	410	NaN	NaN	NaN	77.017	94.122	342.65	136.24	66.057	389.31	157.32	711.89	141.58	247.08	628.14	172.16	179.07	625.26	162.39	230.01	711.97	145.21	201.07	522.53	188.53	194.57	526.38	312.76	137.82	341.88	189.24	202.2	254.47	219.29	132.69	269.73	207.44	201.29	329.21	200.71	146.86	100.42	230.9	168.47	104.43	316.71	93.115	76.547	280.73	107.01	41.079	309.75	100.06	49.538	246.82	276.05	40.99	208.73	297.65	38.058	324.06	360.71	55.826	274.42	76.528	1530.8	317.56	30.371	1247.3	327.93
322	1.3375	270.31	1238	316.45	156.12	1477.6	489.72	140.11	1501.3	154.46	156.33	1791.4	332.65	247.62	1021.2	421.74	251.36	1030.3	190.23	46.776	1046.3	345.49	52.103	1054.4	252.34	184.82	908.64	488.27	161.99	922.43	122.09	150.31	1087.6	468.19	156.72	1111.3	160.31	32.846	1010.2	295.27	232.4	713.02	478	335.61	640.42	449.44	264.89	629.33	459.57	309.05	730.42	467.37	323.4	537.46	444.85	305.09	537.52	314.13	174.73	425.49	456.66	183.53	337.44	436.7	126.91	364.92	452.49	232.47	398.55	443.59	19.627	237.03	424.7	52.398	227	346.91	-37.479	238.77	376.05	-45.798	211.31	348.81	-50.738	218.41	410.51	NaN	NaN	NaN	93.885	92.268	343.47	153.93	66.05	390.15	160.61	712.27	141.47	249.74	627.92	172.21	181.7	625.46	162.31	233.22	711.87	145.32	202.85	522.49	188.53	196.31	526.37	312.74	138.79	342.04	189.23	202.83	254.42	219.32	133.41	269.95	207.42	202.18	329.17	200.72	147.03	100.48	231.01	168.37	104.45	316.75	93.182	76.598	280.74	107	41.122	309.73	100.1	49.606	246.82	276.07	40.981	208.73	297.69	37.986	324.05	360.75	55.697	274.41	81.575	1531.2	317.46	35.197	1247.8	327.66
323	1.3417	275.1	1238.3	316.37	161.05	1477.9	489.64	145.27	1501.8	154.44	161.55	1791.7	332.71	252.41	1021.7	421.56	256.11	1030.5	190.02	51.514	1046.6	345.4	56.871	1054.6	252.25	190.02	909.41	488.31	166.63	922.51	122.12	154.98	1088.1	468.08	161.46	1111.5	160.16	37.655	1010.5	295.21	239.45	714.1	478.28	343.11	642.35	449.17	272.56	630.67	459.74	315.87	732.15	467.16	331.62	539.18	444.53	312.92	539.17	314.06	184.62	424.72	456.64	195	336.85	436.75	137.9	363.33	452.65	242.82	398.8	443.54	32.891	233.32	425	65.798	223.91	347.19	-24.543	233.35	376.44	-32.155	205.56	349.34	-37.151	212.76	411.02	NaN	NaN	NaN	110.86	90.395	344.24	171.67	66.031	390.93	163.9	712.64	141.35	252.4	627.69	172.24	184.32	625.65	162.24	236.41	711.75	145.43	204.64	522.44	188.52	198.04	526.36	312.74	139.75	342.19	189.23	203.47	254.36	219.36	134.14	270.18	207.38	203.07	329.13	200.71	147.2	100.54	231.11	168.25	104.47	316.79	93.249	76.646	280.74	107.02	41.16	309.71	100.13	49.673	246.83	276.09	40.97	208.73	297.72	37.922	324.04	360.79	55.577	274.39	86.628	1531.6	317.36	40.022	1248.2	327.4
